<svg id="Layer_1" data-name="Layer 1" xmlns="http://www.w3.org/2000/svg" viewBox="0 0 3139.1 1476.66"><defs><style>.cls-1,.cls-2{fill:#fff;}.cls-1{fill-rule:evenodd;}.cls-3{fill:none;}.cls-4{isolation:isolate;}</style></defs><path class="cls-1" d="M2211.6,809.32c6.5-9.7,18.1-22.2,34.6-37.5,16.1-14.7,13.7-24.1-7-28,26.5-22.1,39.1-45.6,37.6-70.6a458.09,458.09,0,0,1,5.7-73.9c15.2-51.3-1.3-97.2-49.9-137.6q-33.3-24.45-73.9-11.4a855.58,855.58,0,0,0-83.6,31.7c-19.4,7.1-33.7,10.2-43,9.2-10.1-.8-23.9-1.5-41.7-2-33.1,5.5-61.9,14.7-86.5,27.3q-43.65,6.3-89.5,9.1-41,12.45-62.8,34.6-38.1,13-83.9,29.2c-30.1,10.3-32.9,25.2-8.7,44.8-6.6,2.2-12.5,4.1-17.8,5.9-7.7,1.5-19.2,4.9-34.2,10-3.1,7.6-13.6,13.7-31.4,18.2q-39.75-8.1-70.2-22.6c-13.7,1-25.5,4.9-35.5,11.7-9.6,6.3-22,8.4-37.6,6.5-10.2-3.7-19.6-10.2-27.8-19.5s-19.2-10.9-32.8-4.9c-5.2,4.3-8,11.4-8.1,21.1.1,10.2-3.6,18.3-10.7,24.4q-47.4,15.45-89.6-.4c-22.6-13.2-33.2-28.4-31.4-45.9,0-13.9,5.2-22.1,15.7-24.3,10-1.7,22.9-7,38.9-15.7-5.3-8.4-.2-14.8,15.2-19.2,15.3-4.8,28.4-7.7,39.7-8.9,23.3-4.7,45-2.9,65.3,5.3a102.59,102.59,0,0,0,16-6.7q-34.65-17.1-62.2-34.1c-1-17.9-1.3-36.1-1-54.4-11.3-14.1-15.4-28.8-12.6-44.4.4-17.1,1.7-35.1,3.9-54.3q40.35-9.75,35-31.3a154.12,154.12,0,0,1-33.5,15,196.85,196.85,0,0,0-44.5,8.9c6.6-9.8,16.2-22.8,28.9-39.2s11.6-26.9-3.2-31.5c-11.2-1.4-27.2.2-48.2,4.8s-37.4,8-49.5,10.2q-48.9-.15-39.8,25.5-23.25.9-44.1,1.8c-13.6,1-18.8,6.7-15.2,17.3,18.7,14.6,37.3,30.4,55.9,47.2-21.2,1.7-43.6.5-67.7-3.5-24.9,6.9-48,13.8-68.9,20.9-23.2-.4-32.3-9.7-27.1-27.9s11.1-32,17.9-41.4c-23.9-4-49.6-2.5-76.8,4.5q-85.65,28.5,5.3,21.5c-18.6,10.7-45.7,18.6-81.7,23.6a466.37,466.37,0,0,1-52.2,19.2c-16.2.8-29.1,1.1-38.7,1-12.7,8.8-19.8,19.1-21,30.8q-21.75,20.25-42.6,40.2c-5.7,7.4-11.7,17.9-18.3,31.4a121.7,121.7,0,0,0-6.4,18.2q-2.4,9.45,1.8,14.1c12.2-7,21-15.2,26.1-24.5,11.1-11.3,22.8-18.5,35-21.7q44.85-.75,56.2,26.7a147.82,147.82,0,0,0,3.2,22c10.5,6.6,20.5,11.1,29.8,13.3a89.65,89.65,0,0,1,17.7,45c2.5,32.7,29,57.3,79.7,73.4,27.7,7.3,55,14.8,82.3,22.6q30.15,15.75,73.6,16.6-16.5-14.85-48.9-9.6c-16.3-9.4-32.2-18.4-47.9-27q71.55,3.75,130.7,24.1c40.4,13.7,86.5,17,138.6,10,33.8-7,66.6-15.2,98.7-24.8,22.5-7,45.6-14.5,69.3-22.3,23.7-4,52.1-4.7,85.5-2.4q50.4,4.2,78.6-11.3c-13.4-9.7-8.9-14.7,13.2-14.9s38.6,2.1,49.5,6.9c9.9,8,12,16.6,6.6,25.6-6.1,9.2-6.1,18.1.1,26.7a150.34,150.34,0,0,0,27.4,9.4,57,57,0,0,0,2.1,10.9c9.3,4.8,20,7.7,31.9,8.9,27.8,3.9,56.6,7.2,86.2,10.2,29.4,1.3,59.9-.7,91.6-5.8s60.4-3,86.2,6.4c26.9,17.6,54,44.5,80.8,80.7q39.9,53.85,110.1,47.8c12.1-2.3,25.2-6.7,39.2-13.3a52,52,0,0,1-13.7-2.8c-24.5-13.7-32.6-34-24-60.8Z" transform="translate(-53.2 -32.86)"/><path class="cls-1" d="M1776.3,55.42c8.4,8.3,16.6,16.9,24.5,25.9-7.1,8.7,2.8,19.9,29.9,33.6,26.7,13.2,48.1,22.9,64,29a281.37,281.37,0,0,1,59.8,25.6c16.9,14,37.3,24.8,60.9,32.1,42.9,21.3,88.7,46,141.5,50.6,28.8,3.9,41.7-1.3,63.6-7.6,10.7-18-14.6-25.1-32.7-41.3.5-.6,11.8-.1,19.8,2.8,5.9,2.4,27.6,3.6,32.7,8.7l-8.5-12.6c3.8-13.4-29.2-34.7-61.1-55-35.9-9.5-48.4-21.9-77.9-30.1a55.32,55.32,0,0,1-11.8-4.3c-10.7-4-15.5-8.5-14.3-13.5q-66.9-21.3-143.2-35.9a475.15,475.15,0,0,0-72.2-13.5c-6.3.3-11.3.9-15.4,2.2a95.07,95.07,0,0,1-25.5,5.1c-10.3-4.4-21.6-5-34.1-1.8Z" transform="translate(-53.2 -32.86)"/><path class="cls-1" d="M1247.7,196.82c-18.1-6-40.1-5.8-65.8.7-26.1,7.1-49.7,6.5-70.5-1.7l10.8,6.8c-18.8,3-39.9,14.4-63,34.4-22.5,19.9-27.5,36.1-15.1,48.9a388.1,388.1,0,0,1,120.8-36.6c18-.2,37.7,2.1,59,6.6,21,4.1,41.2,2.8,60.4-3.8,22.2-8.5,22.1-16.9-.5-25.1-10.2-10.8-22.4-20.8-36.1-30.2Z" transform="translate(-53.2 -32.86)"/><path class="cls-1" d="M1287.6,106.22c8.2-.9,20.5-.6,37,.7s25.5,2.1,27.1,2a395.47,395.47,0,0,0,58.8-22.4q27.45,5,53.7-14.2c25-3.2,46.5-.7,64.2,7.4a371.76,371.76,0,0,1-68.6,26.1c16.7,1.8,33.7,4.2,51.1,7.3a354.59,354.59,0,0,0,50.5-24.7c19.4-7.8,38.2-8.6,56.3-2.6,18.2-5.8,34.9-4.7,50.1,3.1-2.2,4.8,1,11.2,9.4,19.6a271.05,271.05,0,0,0,35.5-4.2c15.8,1.5,35.6,1.7,59.3.4q37.05-1.5,14.5-23.4c-16.6-10.5-36.4-15.8-59.2-15.8q-35.25.3-54.2-21.8a66.9,66.9,0,0,0,17.4-2.8,62.07,62.07,0,0,1,13.3-3.8q-50.85-9-109.2,1.1a942,942,0,0,0-122.2,7.9,1476.47,1476.47,0,0,0-202.6,40.5c-7.6,1.7-18.5,4.9-32.7,9.5-14,4.6-15.8,10.8-5.4,18.5a150.29,150.29,0,0,0,55.9-8.4Z" transform="translate(-53.2 -32.86)"/><path class="cls-1" d="M1422.3,604.52q60.6-15.6,110.3-32.9c12.9-3.7,15.9-8.3,9.1-13.8-16.4,3-41.3,8.7-74.7,17.4-33.3,9.1-48.2,18.8-44.7,29.3Z" transform="translate(-53.2 -32.86)"/><path class="cls-1" d="M1588.2,558c12-4.8,20.2-11.3,24.4-19.6,2.3-4,2.2-7.3-.4-10.1-4.6-2.2-10.6.6-18.5,8.5-7.5,7.9-9.3,14.9-5.5,21.2Z" transform="translate(-53.2 -32.86)"/><path class="cls-1" d="M1153.9,294.82q-46.65,25.05-92.2,17.5l-35.7,8.1q14.4,18,42.3,10.7c18.5-4.9,33.2-1.2,43.6,11.1,24.6-7.1,45.4-15.3,62.6-24.4-13.5-3.1-20.3-10.8-20.6-23Z" transform="translate(-53.2 -32.86)"/><path class="cls-1" d="M1378.6,343.82c12.5-7.7,25.3-15.3,38.6-22.7a18.39,18.39,0,0,0-3.9-9.6,220.36,220.36,0,0,1-40.6,7.9l-8.9,1c-4.9,10.1.1,17.9,14.8,23.4Z" transform="translate(-53.2 -32.86)"/><path class="cls-2" d="M530.4,927.82a1117,1117,0,0,1,140.7-360.2q25.35-41.55,54.1-80.9l7.2-9.8c2.4-3.3,4.9-6.4,7.4-9.7l7.4-9.6,3.7-4.8,3.8-4.7,15.4-18.9,15.9-18.5,4-4.6,4.1-4.5,8.2-9,8.2-9c2.7-3,5.6-5.9,8.4-8.8,5.7-5.8,11.3-11.7,17-17.5l17.5-17c5.7-5.8,11.8-11.2,17.8-16.7l9-8.2c3-2.7,6-5.5,9.1-8.1l18.5-15.9c6.1-5.4,12.6-10.3,18.9-15.4l9.5-7.6c3.2-2.5,6.3-5.1,9.6-7.5l19.6-14.6c13.3-9.4,26.5-18.9,40.2-27.8q40.8-26.85,83.9-50a1118.09,1118.09,0,0,1,179.7-76.3q46.5-15.15,94.1-26.3t95.9-18.6l12.1-1.8c4-.6,8.1-1.1,12.1-1.6,8.1-1.1,16.2-2,24.3-2.9,16.2-1.7,32.4-3.3,48.7-4.4,32.5-2.3,65.1-3.4,97.8-2.8s65.2,2.7,97.6,5.9,64.7,7.8,96.7,13.6,63.9,12.8,95.4,21c15.8,4.1,31.4,8.5,47,13.2s31.1,9.8,46.5,15.1,30.6,11,45.8,16.9l11.3,4.5,5.7,2.3,5.6,2.4,11.3,4.7,11.2,4.9,5.6,2.5,5.6,2.5,11.1,5.1,11,5.2,5.5,2.6,5.5,2.7,10.9,5.4,10.9,5.6c7.3,3.7,14.4,7.6,21.6,11.5a1115.71,1115.71,0,0,1,162.4,108.2c101.6,81.4,188.3,181,255.6,292,16.8,27.8,32.5,56.2,46.8,85.3s27.5,58.7,39.4,88.8,22.5,60.7,31.9,91.7,17.4,62.3,24.1,93.9c-3.9-15.7-8.2-31.3-12.7-46.8s-9.4-30.9-14.5-46.2c-10.2-30.6-21.7-60.8-34.2-90.5-12.7-29.6-26.4-58.8-41.4-87.3s-31-56.4-48.3-83.6c-68.8-108.6-155.9-205.5-257-284.5q-37.8-29.7-78.2-55.9c-26.9-17.4-54.4-33.9-82.7-48.9-7.1-3.7-14.1-7.5-21.3-11.1l-10.7-5.4-10.8-5.2-5.4-2.6-5.4-2.5-10.9-5.1-11-4.9-5.5-2.5-5.5-2.4-11-4.7-11.1-4.6-5.6-2.3-5.6-2.2-11.2-4.4c-15-5.7-30-11.2-45.2-16.4a1254.26,1254.26,0,0,0-186.1-47.7,1226.26,1226.26,0,0,0-191-19c-31.9-.6-64,.5-95.9,2.6-16,1-31.9,2.6-47.9,4.3-8,.9-15.9,1.8-23.9,2.9L1474.3,66l-11.9,1.7a1185,1185,0,0,0-187,43.3,1115.51,1115.51,0,0,0-177.2,73.8q-42.6,22.35-83,48.4c-13.5,8.6-26.7,17.7-39.8,26.9L956,273.92c-3.3,2.3-6.4,4.8-9.6,7.3l-9.5,7.4c-50.7,39.3-97.5,83.5-140.6,131.1l-16,18-15.5,18.4-3.9,4.6-3.8,4.7-7.5,9.4c-2.5,3.2-5,6.3-7.5,9.4l-7.3,9.6q-29.25,38.4-55.1,79.1l-6.5,10.2-6.3,10.3c-4.2,6.8-8.2,13.8-12.3,20.7l-11.8,21c-2,3.5-3.8,7.1-5.7,10.6l-5.7,10.6q-22.35,42.75-41.2,87.4c-12.6,29.7-23.7,60-33.7,90.6-5.1,15.3-9.7,30.8-14.1,46.3C538.3,896.52,534.2,912.12,530.4,927.82Z" transform="translate(-53.2 -32.86)"/><rect class="cls-3" x="149.8" y="996.06" width="auto" height="auto"/><g class="cls-4"><path class="cls-2" d="M232.4,1199v-7q14.29,0,14.3-7V1009.64q0-7-14.3-7v-7h136q37.1,0,58.35,13.72T448,1056q0,32.85-21.25,46.57t-58.35,13.72H290.76v68.78q0,7,12.37,7v7Zm140.67-118.26q12.75,0,21.84-5T404,1056q0-14.68-9.08-19.71t-21.84-5H290.76v49.46Z" transform="translate(-53.2 -32.86)"/><path class="cls-2" d="M466.59,1192a11.74,11.74,0,0,0,7.54-4.44,40,40,0,0,0,4.44-6.77l57.58-125.59q2.33-5.41,3.67-8.7a16.68,16.68,0,0,0,1.36-6.37c0-1.55-.33-2.52-1-2.9s-1.35-.84-2.13-1.36v-7h58.36v7a8.56,8.56,0,0,1-2.51,1.16c-.91.26-1.36,1.3-1.36,3.1a12.51,12.51,0,0,0,1.74,5.6q1.74,3.29,3.67,7.53l62.61,131.4a14,14,0,0,0,4.25,5,17.78,17.78,0,0,0,5,2.32v7H615v-5.8a8.57,8.57,0,0,0,4.06-1.16c1.41-.77,2.12-2.18,2.12-4.25a11.44,11.44,0,0,0-.77-4.25q-.78-1.93-1.93-5l-10.44-22h-82.7l-10.82,20.87q-1.54,3.09-2.51,5.6a12.53,12.53,0,0,0-1,4.44c0,2.07.64,3.35,1.94,3.87a14.92,14.92,0,0,0,5.41.77v7H466.59Zm129.08-64.15L564.36,1063l-27.43,64.92Z" transform="translate(-53.2 -32.86)"/><path class="cls-2" d="M711.21,1041.71q0-5.79-9.66-5.8v-7H814q31.31,0,47,11.21t15.65,39q0,27.83-15.65,38.45t-47,10.63h-65.7v58q0,5.8,8.12,5.8v7H701.55v-7q9.66,0,9.66-5.8Zm102,58q11.21,0,18.74-4.06t7.54-16.42q0-12-7.54-16.81t-18.74-4.83H748.31v42.12Z" transform="translate(-53.2 -32.86)"/><path class="cls-2" d="M1071.39,1064.9q0-7.34-12-7.34h-94.3v38.64h59.52a35.44,35.44,0,0,0,9.66-1c2.06-.65,3.09-2.38,3.09-5.22h7v41h-7.73q1.16-4.24-3.1-5.22a57.48,57.48,0,0,0-12-1H965.11v45.6H1064a13.29,13.29,0,0,0,7.73-2.13,6.5,6.5,0,0,0,3.09-5.6h7v40.58h-7q0-3.48-3.09-3.87a63.67,63.67,0,0,0-7.73-.38H922.22v-7a6.73,6.73,0,0,0,3.86-1.35,5,5,0,0,0,1.93-4.45V1041.71a5,5,0,0,0-1.93-4.44,6.74,6.74,0,0,0-3.86-1.36v-7h137.19q12,0,12-7h6.95v42.9Z" transform="translate(-53.2 -32.86)"/><path class="cls-2" d="M1242.2,1029q34.4,0,53.71,11.4t19.33,38.84a42.76,42.76,0,0,1-3.87,18.55,46.72,46.72,0,0,1-10.24,14.1,54.56,54.56,0,0,1-14.1,9.66,80.28,80.28,0,0,1-15.85,5.61l37.87,55.26a22.24,22.24,0,0,0,6.77,6.38,33,33,0,0,0,7.92,3.28v7h-59.13v-7q5,0,5-3.48,0-3.86-5.8-12l-30.53-45.6h-53.72v55.26a4.66,4.66,0,0,0,2.51,4.45,10.24,10.24,0,0,0,4.83,1.35v7h-51.39v-7q6.95,0,7-5.8V1041.71q0-5.79-7-5.8v-7Zm-.78,73.42q37.88,0,37.88-24,0-9.64-9.08-15.26t-28.8-5.6h-61.05v44.82Z" transform="translate(-53.2 -32.86)"/><path class="cls-2" d="M1493.39,1192a8.8,8.8,0,0,0,5.41-1.74,6.12,6.12,0,0,0,2.31-5.22V1008.86c0-2.32-.77-3.92-2.31-4.83a10.6,10.6,0,0,0-5.41-1.35v-7h72.26v7a8.54,8.54,0,0,0-4.06,1.16,3.72,3.72,0,0,0-2.12,3.48,12,12,0,0,0,1.54,5c1,2.07,2.19,4.25,3.48,6.57l55.26,100.48,55.65-99.32c1.8-3.34,3.15-6,4.06-7.92a12.55,12.55,0,0,0,1.35-5.22q0-4.24-5-4.25v-7h71.49v7a10.57,10.57,0,0,0-5.41,1.35c-1.54.91-2.32,2.51-2.32,4.83v176.22a6.13,6.13,0,0,0,2.32,5.22,8.77,8.77,0,0,0,5.41,1.74v7h-60.67v-7q10.44,0,10.43-7v-128.3h-.77L1618.59,1199h-1.15l-76.14-142.6h-.77v128.68q0,7,10.82,7v7h-58Z" transform="translate(-53.2 -32.86)"/><path class="cls-2" d="M1787.08,1192a11.69,11.69,0,0,0,7.54-4.44,40,40,0,0,0,4.44-6.77l57.59-125.59q2.31-5.41,3.67-8.7a16.66,16.66,0,0,0,1.35-6.37c0-1.55-.33-2.52-1-2.9s-1.35-.84-2.12-1.36v-7h58.35v7a8.56,8.56,0,0,1-2.51,1.16c-.91.26-1.35,1.3-1.35,3.1a12.51,12.51,0,0,0,1.74,5.6c1.16,2.19,2.37,4.7,3.67,7.53l62.6,131.4a14.06,14.06,0,0,0,4.25,5,17.71,17.71,0,0,0,5,2.32v7h-54.88v-5.8a8.54,8.54,0,0,0,4.06-1.16c1.41-.77,2.12-2.18,2.12-4.25a11.24,11.24,0,0,0-.77-4.25q-.78-1.93-1.93-5l-10.44-22h-82.7L1835,1177.36q-1.55,3.09-2.51,5.6a12.72,12.72,0,0,0-1,4.44c0,2.07.64,3.35,1.93,3.87a14.92,14.92,0,0,0,5.41.77v7h-51.79Zm129.08-64.15-31.3-64.92-27.44,64.92Z" transform="translate(-53.2 -32.86)"/><path class="cls-2" d="M2039.05,1139.87a29.6,29.6,0,0,1-.19,3.29,32.77,32.77,0,0,0-.2,3.67c0,3.86,2.45,7.41,7.35,10.62a71.26,71.26,0,0,0,17.58,8.12,170.4,170.4,0,0,0,20.48,5.22,92.08,92.08,0,0,0,16,1.93q5.41,0,13.33-.77a73.58,73.58,0,0,0,15.65-3.29,39.71,39.71,0,0,0,13.14-7,14.46,14.46,0,0,0,5.41-11.78q0-8.51-9.47-12.37a104.78,104.78,0,0,0-23.76-6q-14.31-2.11-30.92-4.25a158.26,158.26,0,0,1-30.91-7,62.49,62.49,0,0,1-23.77-13.91q-9.48-9.07-9.47-25.7,0-24.72,20.48-39.41t57.59-14.69q18.15,0,31.1,2.9a153.11,153.11,0,0,1,21.84,6.37q8.88,3.48,14.49,6.38t8.31,2.9a8.86,8.86,0,0,0,4.64-1c1-.64,2.31-1.35,3.86-2.12l4.25,4.25-19.32,36.33-7-2.32c-.26-1.55-.52-3.1-.77-4.64s-1.42-3.09-3.48-4.64q-7.73-6.57-24-11.21a132.19,132.19,0,0,0-36.32-4.63,107.47,107.47,0,0,0-14.69,1,48.26,48.26,0,0,0-12.37,3.29,22.27,22.27,0,0,0-8.5,6,13.64,13.64,0,0,0-3.09,9.08q0,8.51,9.47,12.17a111.81,111.81,0,0,0,23.77,5.8q14.28,2.13,30.91,4.25a151.05,151.05,0,0,1,30.92,7.15,61,61,0,0,1,23.76,14.69q9.46,9.66,9.47,26.66t-8.31,27.82a58.9,58.9,0,0,1-20.67,17,84.81,84.81,0,0,1-27.25,8.11,217.86,217.86,0,0,1-28,1.94,136.25,136.25,0,0,1-26.09-2.52,224.23,224.23,0,0,1-23.57-5.79q-10.64-3.28-18-6.19c-4.9-1.93-7.87-2.89-8.89-2.89a5.86,5.86,0,0,0-4.64,2.31l-5.41-3.86,17.78-43.28Z" transform="translate(-53.2 -32.86)"/><path class="cls-2" d="M2283.29,1192a6.73,6.73,0,0,0,3.86-1.35,5,5,0,0,0,1.93-4.45V1057.56h-50.24a11.57,11.57,0,0,0-5.79,1.54,5.34,5.34,0,0,0-2.71,5h-7v-44.45h7q0,5.42,2.71,7.35a9.75,9.75,0,0,0,5.79,1.93h137.58a9.8,9.8,0,0,0,5.8-1.93q2.7-1.93,2.7-7.35h7v44.45h-7a5.35,5.35,0,0,0-2.7-5,11.63,11.63,0,0,0-5.8-1.54h-50.24v128.68q0,5.8,7,5.8v7h-49.85Z" transform="translate(-53.2 -32.86)"/><path class="cls-2" d="M2585.11,1064.9q0-7.34-12-7.34h-94.3v38.64h59.51a35.48,35.48,0,0,0,9.67-1c2.06-.65,3.09-2.38,3.09-5.22h7v41h-7.73q1.17-4.24-3.09-5.22a57.48,57.48,0,0,0-12-1h-56.42v45.6h98.93a13.31,13.31,0,0,0,7.73-2.13,6.5,6.5,0,0,0,3.09-5.6h7v40.58h-7q0-3.48-3.09-3.87a63.79,63.79,0,0,0-7.73-.38H2435.94v-7a6.73,6.73,0,0,0,3.86-1.35,5,5,0,0,0,1.93-4.45V1041.71a5,5,0,0,0-1.93-4.44,6.74,6.74,0,0,0-3.86-1.36v-7h137.19q12,0,12-7h6.95v42.9Z" transform="translate(-53.2 -32.86)"/><path class="cls-2" d="M2755.92,1029q34.38,0,53.71,11.4T2829,1079.2a42.76,42.76,0,0,1-3.87,18.55,46.72,46.72,0,0,1-10.24,14.1,54.45,54.45,0,0,1-14.11,9.66,80,80,0,0,1-15.84,5.61l37.87,55.26a22.24,22.24,0,0,0,6.77,6.38,33,33,0,0,0,7.92,3.28v7h-59.13v-7c3.34,0,5-1.16,5-3.48q0-3.86-5.79-12L2747,1131h-53.72v55.26a4.66,4.66,0,0,0,2.51,4.45,10.21,10.21,0,0,0,4.83,1.35v7h-51.39v-7q6.94,0,6.95-5.8V1041.71q0-5.79-6.95-5.8v-7Zm-.78,73.42q37.88,0,37.88-24,0-9.64-9.09-15.26t-28.79-5.6h-61.06v44.82Z" transform="translate(-53.2 -32.86)"/><path class="cls-2" d="M2898.13,1139.87a29.71,29.71,0,0,1-.2,3.29,32.84,32.84,0,0,0-.19,3.67c0,3.86,2.45,7.41,7.34,10.62a71.34,71.34,0,0,0,17.59,8.12,170.4,170.4,0,0,0,20.48,5.22,92,92,0,0,0,16,1.93q5.4,0,13.33-.77a73.71,73.71,0,0,0,15.65-3.29,39.71,39.71,0,0,0,13.14-7,14.49,14.49,0,0,0,5.41-11.78q0-8.51-9.47-12.37a104.92,104.92,0,0,0-23.76-6q-14.31-2.11-30.92-4.25a158.53,158.53,0,0,1-30.92-7,62.52,62.52,0,0,1-23.76-13.91q-9.48-9.07-9.47-25.7,0-24.72,20.48-39.41t57.58-14.69q18.17,0,31.11,2.9a152.93,152.93,0,0,1,21.83,6.37,157.76,157.76,0,0,1,14.5,6.38q5.6,2.89,8.31,2.9a8.82,8.82,0,0,0,4.63-1c1-.64,2.32-1.35,3.87-2.12l4.25,4.25-19.32,36.33-7-2.32c-.26-1.55-.52-3.1-.77-4.64s-1.42-3.09-3.48-4.64q-7.74-6.57-24-11.21a132.21,132.21,0,0,0-36.33-4.63,107.22,107.22,0,0,0-14.68,1,48.26,48.26,0,0,0-12.37,3.29,22.27,22.27,0,0,0-8.5,6,13.58,13.58,0,0,0-3.09,9.08q0,8.51,9.47,12.17a111.86,111.86,0,0,0,23.76,5.8q14.3,2.13,30.92,4.25a151,151,0,0,1,30.91,7.15,61.06,61.06,0,0,1,23.77,14.69q9.46,9.66,9.47,26.66t-8.31,27.82a58.84,58.84,0,0,1-20.68,17,84.75,84.75,0,0,1-27.24,8.11,217.89,217.89,0,0,1-28,1.94,136.15,136.15,0,0,1-26.08-2.52,224.44,224.44,0,0,1-23.58-5.79q-10.63-3.28-18-6.19c-4.89-1.93-7.86-2.89-8.88-2.89a5.84,5.84,0,0,0-4.64,2.31l-5.41-3.86,17.77-43.28Z" transform="translate(-53.2 -32.86)"/></g><path class="cls-2" d="M53.2,1293.22c64.9-2.7,129.8-4.8,194.7-6.8s129.8-3.6,194.7-5.2l97.3-2.2,97.3-1.9q97.35-1.95,194.7-3.2,389.25-5.55,778.6-5.3,389.25,0,778.6,5.2,97.35,1.35,194.7,3.2l97.3,1.9,97.3,2.2,97.3,2.4c32.4.9,64.9,1.7,97.3,2.8,64.9,2,129.8,4.1,194.7,6.8q-97.35,4.05-194.7,6.8c-32.4,1-64.9,1.9-97.3,2.8l-97.3,2.4-97.3,2.2-97.3,1.9q-97.35,2-194.7,3.2-389.25,5.4-778.6,5.2-389.25,0-778.6-5.3-97.35-1.35-194.7-3.2l-97.3-1.9-97.3-2.2c-64.9-1.6-129.8-3.2-194.7-5.2Q150.55,1297.12,53.2,1293.22Z" transform="translate(-53.2 -32.86)"/><g class="cls-4"><path class="cls-2" d="M627.46,1453.11H595.15l.68-3c2.63,0,4.57-.69,4.57-3.09a21.4,21.4,0,0,0-.23-2.16l-.57-2.86a56.73,56.73,0,0,1-17.58,3.08,52.8,52.8,0,0,1-17.93-3.08l-1.6,3a6.84,6.84,0,0,0-1.14,3.31c0,1.37,1,1.83,3,1.83l-.68,3H530.52l.69-3c3.77,0,5.36-1.37,8.22-5.83l40.42-61.88a8.75,8.75,0,0,0,1.6-4.11c0-1.37-.8-2.17-2.51-2.17l.68-3H617.3l-.68,3c-2.17,0-3.66.8-3.66,3.31a31.64,31.64,0,0,0,.34,3.65l9.82,61.32c.69,4.57,1.83,5.71,5,5.71Zm-34.59-59.84h-.58l-18.95,33.12a35.34,35.34,0,0,0,12,1.82,36.21,36.21,0,0,0,12.1-1.94Z" transform="translate(-53.2 -32.86)"/><path class="cls-2" d="M708.3,1454.82c-17.7,0-34.82-1-43.62-1.71l.69-3c4.22,0,6.85-1.83,8-6.62l14.84-59.72a14.73,14.73,0,0,0,.58-3.54c0-3-1.6-4.11-4.91-4.11l.68-3c9.14-.69,22.61-1.83,43.5-1.83,26.15,0,42.59,11.19,42.59,34.26C770.64,1438.83,743.13,1454.82,708.3,1454.82Zm14.84-65.66a125.6,125.6,0,0,0-12.78.57l-11.31,46.13a103.79,103.79,0,0,0,13.48.69c18.49,0,34.48-12.22,34.48-30.94C747,1394,737,1389.16,723.14,1389.16Z" transform="translate(-53.2 -32.86)"/><path class="cls-2" d="M818.26,1389.28l-.69,2.74a5.8,5.8,0,0,0-5.82,4.45l-12.33,49.44a8.44,8.44,0,0,0-.23,1.6c0,1.83,1.37,2.86,3.77,2.86l-.69,2.74h-29.8l.69-2.74c3.31,0,4.91-1.49,5.59-4.46L791,1396.7a12,12,0,0,0,.34-1.94c0-1.94-1.37-2.74-3.54-2.74l.69-2.74Z" transform="translate(-53.2 -32.86)"/><path class="cls-2" d="M901,1389.28l-.69,2.74c-2.28,0-3.88,1.37-5.71,4l-32.77,48c-1.71,2.51-2.51,3.88-2.51,4.45,0,1,.23,1.49,1.94,1.83l-.8,2.86H829.9l.8-2.74c2.06-.23,3-.69,3-2.17a33.63,33.63,0,0,0-.57-3.77l-8.22-48.19c-.57-3.42-1.14-4.22-3.54-4.22l.68-2.74h27.29l-.68,2.74c-2.74,0-3.43,1.14-3.43,2.74,0,.57.12,2.17.23,3l4.34,35.74h.8L873,1396.93a5.46,5.46,0,0,0,.91-3.08c0-1.15-.68-1.83-2.51-1.83l.69-2.74Z" transform="translate(-53.2 -32.86)"/><path class="cls-2" d="M937.23,1389.28l-.68,2.74a5.8,5.8,0,0,0-5.82,4.45l-12.34,49.44a9.24,9.24,0,0,0-.22,1.6c0,1.83,1.37,2.86,3.76,2.86l-.68,2.74h-29.8l.68-2.74c3.31,0,4.91-1.49,5.6-4.46l12.21-49.21a11,11,0,0,0,.35-1.94c0-1.94-1.37-2.74-3.54-2.74l.68-2.74Z" transform="translate(-53.2 -32.86)"/><path class="cls-2" d="M1003.8,1410.74l-2.62.58c-1.6-5.94-10.4-9-21.36-9-10.62,0-13.24,2.16-13.24,3.88a3.06,3.06,0,0,0,1.82,2.51,22.47,22.47,0,0,0,2.17,1c.8.34,1.72.68,2.74,1.14l11.19,4.34c7.77,3.08,15.19,7.53,15.19,17.7,0,14.38-13.47,21.92-39.51,21.92-6.85,0-16.67-2.17-18.15-2.17a13,13,0,0,0-4.57.68l-2.05-24.09,3.08-.68c2.17,6.85,10.28,11.07,23.18,11.07,13.59,0,15.18-3,15.18-4.79,0-2.06-2.05-3.31-7.19-5.37l-8.45-3.31c-8.45-3.31-16.78-7-16.78-17.59,0-14,14.61-21.23,35.62-21.23,6.51,0,15.64,1.82,17.13,1.82a11.19,11.19,0,0,0,4.68-.91Z" transform="translate(-53.2 -32.86)"/><path class="cls-2" d="M1049.59,1389.28l-.69,2.74a5.8,5.8,0,0,0-5.82,4.45l-12.33,49.44a8.44,8.44,0,0,0-.23,1.6c0,1.83,1.37,2.86,3.77,2.86l-.69,2.74h-29.8l.69-2.74c3.31,0,4.91-1.49,5.59-4.46l12.22-49.21a12,12,0,0,0,.34-1.94c0-1.94-1.37-2.74-3.54-2.74l.69-2.74Z" transform="translate(-53.2 -32.86)"/><path class="cls-2" d="M1085.33,1455.05c-22.95,0-35.06-11.53-35.06-28.55,0-24.55,23.41-39.39,46.13-39.39,21.81,0,35.28,10.39,35.28,28.32C1131.68,1437.81,1110.79,1455.05,1085.33,1455.05Zm9.93-51.61c-11.53,0-24.43,9-24.43,22.26,0,8.45,7.07,13,15.64,13,12,0,24.66-8.79,24.66-21.81C1111.13,1407.89,1105,1403.44,1095.26,1403.44Z" transform="translate(-53.2 -32.86)"/><path class="cls-2" d="M1222.57,1389.28l-.68,2.74a5.83,5.83,0,0,0-5.83,4.57l-14.16,56.52h-16.44a11.74,11.74,0,0,0-1.71-5.48l-19.07-32.32-7.65,30.26a9.23,9.23,0,0,0-.23,1.71c0,2.17,1.6,3.09,3.66,3.09l-.69,2.74h-27.4l.68-2.74a5.55,5.55,0,0,0,5.6-4.57l12.22-49.1a8,8,0,0,0,.34-2.17c0-1.71-1.26-2.51-3.54-2.51l.68-2.74h24.21a12.83,12.83,0,0,0,1.71,5.48l17,28.2,6.28-26.15a13.33,13.33,0,0,0,.34-2.51c0-1.82-1.14-2.28-3.54-2.28l.68-2.74Z" transform="translate(-53.2 -32.86)"/><path class="cls-2" d="M1289.14,1455.05c-23,0-35.06-11.53-35.06-28.55,0-24.55,23.41-39.39,46.13-39.39,21.81,0,35.29,10.39,35.29,28.32C1335.5,1437.81,1314.6,1455.05,1289.14,1455.05Zm9.93-51.61c-11.53,0-24.43,9-24.43,22.26,0,8.45,7.08,13,15.64,13,12,0,24.66-8.79,24.66-21.81C1314.94,1407.89,1308.78,1403.44,1299.07,1403.44Z" transform="translate(-53.2 -32.86)"/><path class="cls-2" d="M1414.28,1408.69l-2.51.46c-.69-3.09-3.66-4.34-6.85-4.34H1373.4l-2.85,12h24.89c2.85,0,4.68-1,5.71-3.89h2.63l-5.94,22.61h-2.63a8.44,8.44,0,0,0,.23-1.6c0-1.6-1.48-2.51-3.88-2.51h-25l-3.42,14.27a7.44,7.44,0,0,0-.23,1.6c0,1.94,1.25,3.09,3.77,3.09l-.69,2.74h-29.8l.68-2.74c3.32,0,4.91-1.72,5.6-4.69l12.22-48.75a12.45,12.45,0,0,0,.34-2.51c0-1.49-1.48-2.4-3.65-2.4l.68-2.74h54.58a17.55,17.55,0,0,0,6-.92Z" transform="translate(-53.2 -32.86)"/><path class="cls-2" d="M1534.63,1396.24l-3.09.57c-1.25-4-3.77-5.59-8-5.59h-38.14l-3.08,12.9h29c4.91,0,6.4-1.6,7.65-4.79h3.09l-6.74,26.49h-3a6,6,0,0,0,.23-1.37c0-2.4-1.49-3.43-5.71-3.43H1478l-3.54,14.16h40.88c4.79,0,8.22-2.28,11.19-6.51l2.74,1.37-11.19,24.21a17.81,17.81,0,0,0-6.17-1.14h-72.05l.69-3c4.45,0,6.74-1.72,8-6.85L1463.6,1383a10.21,10.21,0,0,0,.46-3c0-2.74-1.83-3.88-5-3.88l.8-3h65.65a23.18,23.18,0,0,0,7.08-.91Z" transform="translate(-53.2 -32.86)"/><path class="cls-2" d="M1714,1373.18l-.68,3c-3.2,0-5,1.14-7.65,5.59l-36.43,61.66c-.68,1-2.17,3.54-2.17,4.8a2,2,0,0,0,2.29,1.94l-.69,3h-35.62l.68-3c3.2,0,4.57-2.63,4.57-5.25a14.38,14.38,0,0,0-.11-2.06l-2.4-23.86h-.69L1620,1442.49c-1.37,2.17-2.4,4-2.4,5.82,0,1.14.69,1.83,2.29,1.83l-.69,3h-35.51l.69-3c3.08,0,3.88-2.4,3.88-4.91a19.2,19.2,0,0,0-.11-2.4l-5.14-60.74c-.35-4-1.72-5.94-4.8-5.94l.69-3h34.94l-.69,3c-3.54,0-5.94.91-6,3.88,0,.8,0,2.63.11,4.22l2.29,42h.34l27.63-41.33h15.19l4.34,41.33h.45l24-43.39a10.93,10.93,0,0,0,1.49-4.22c0-1.6-1.26-2.51-3.32-2.51l.69-3Z" transform="translate(-53.2 -32.86)"/><path class="cls-2" d="M1734.78,1455.05c-23,0-35-11.53-35-28.55,0-24.55,23.41-39.39,46.13-39.39,21.81,0,35.28,10.39,35.28,28.32C1781.14,1437.81,1760.24,1455.05,1734.78,1455.05Zm9.94-51.61c-11.54,0-24.44,9-24.44,22.26,0,8.45,7.08,13,15.64,13,12,0,24.67-8.79,24.67-21.81C1760.59,1407.89,1754.42,1403.44,1744.72,1403.44Z" transform="translate(-53.2 -32.86)"/><path class="cls-2" d="M1841.43,1431.53a46,46,0,0,0,6.39,16.55c.92,1.6,2.29,2.29,4.57,2.29l-.69,2.74h-23.29a53.21,53.21,0,0,1-5.37-18.5,72.74,72.74,0,0,1-11.41-.46l-2.74,11.76a10.06,10.06,0,0,0-.35,2.4c0,1.6,1.49,2.06,3.77,2.06l-.68,2.74h-29.81l.69-2.74c3.31,0,4.91-1.49,5.6-4.46l12.33-49.67a11.8,11.8,0,0,0,.22-1.82c0-1.72-1.37-2.4-3.54-2.4l.69-2.74c7.31-.34,21.58-1.14,32-1.14,19.3,0,30.72,6.39,30.72,18.72C1860.5,1419.77,1852.62,1427.87,1841.43,1431.53ZM1828,1403.09c-2.51,0-6.85.12-8.56.23l-4.11,16.22c2.4.23,6.62.34,8.91.34,11.3,0,16.21-5.14,16.21-10.28C1840.4,1405.38,1837.55,1403.09,1828,1403.09Z" transform="translate(-53.2 -32.86)"/><path class="cls-2" d="M1931.74,1433.69l-9.82,20.56a14.11,14.11,0,0,0-5.48-1.14h-57l.68-2.74a5.46,5.46,0,0,0,5.71-4.57l12.33-49.1a10.7,10.7,0,0,0,.23-1.94c0-1.83-1.37-2.74-3.65-2.74l.68-2.74h29.8l-.68,2.74a5.79,5.79,0,0,0-5.71,4.57l-10.28,41h33.23c2.85,0,5.48-1.83,7.31-5.14Z" transform="translate(-53.2 -32.86)"/><path class="cls-2" d="M1969.65,1454.48c-14.5,0-29-.8-36.08-1.37l.68-2.74a5.38,5.38,0,0,0,5.6-4.46l12.1-48.64a10.16,10.16,0,0,0,.35-2.51c0-2.06-1.26-2.74-3.43-2.74l.69-2.74c7.3-.57,20.55-1.49,35-1.49,22.84,0,34.25,11,34.25,27.41C2018.86,1442.83,1999.45,1454.48,1969.65,1454.48Zm11.08-51.73a87.12,87.12,0,0,0-9.48.46l-9.14,36c2.29.22,5.94.34,10.17.34,14.5,0,26.6-8.45,26.6-23.52C1998.88,1407.66,1992.37,1402.75,1980.73,1402.75Z" transform="translate(-53.2 -32.86)"/><path class="cls-2" d="M2096.05,1430.38a103.65,103.65,0,0,1-11.42-.57l-3.43,13.13a12.81,12.81,0,0,0-.45,3.32c0,2.74,1.71,3.88,5,3.88l-.8,3h-36.42l.8-3c4.11,0,6.73-1.83,8-7l15-60.17a12.69,12.69,0,0,0,.34-2.74c0-2.74-1.48-4.11-4.91-4.11l.8-3c11.19-.69,26.95-1.37,38.82-1.37,24.55,0,39.85,6.51,39.85,25.46C2147.2,1418.74,2126.42,1430.38,2096.05,1430.38Zm8.79-41c-2.63,0-6.74.12-10.5.46l-5.26,21.92c3,.34,8.57.57,10.62.57,15.3,0,23.41-4.56,23.41-14C2123.11,1392,2118.2,1389.39,2104.84,1389.39Z" transform="translate(-53.2 -32.86)"/><path class="cls-2" d="M2237.18,1389.28l-.69,2.74a5.56,5.56,0,0,0-5.71,4.68l-8.9,35.62c-1,4-.92,5.26-.46,6.51-8.45,9-20,15.87-39.16,15.87-16.1,0-25.24-6.85-31.18-15.87,1.15-1.37,1.83-2.62,2.74-6.51l8.91-35.51a17.1,17.1,0,0,0,.34-2.51c0-1.37-1.37-2.28-3.76-2.28l.68-2.74h29.57l-.68,2.74c-3,0-4.8,1.48-5.6,4.68l-8.1,32.2a16.15,16.15,0,0,0-.23,2.28c0,4.68,4.91,7.77,11.3,7.77,7.42,0,15.53-3.54,17-9.71l8.11-32.65a10.76,10.76,0,0,0,.23-1.83c0-2.17-1.48-2.74-3.77-2.74l.69-2.74Z" transform="translate(-53.2 -32.86)"/><path class="cls-2" d="M2303.74,1433.69l-9.82,20.56a14.11,14.11,0,0,0-5.48-1.14h-57l.68-2.74a5.46,5.46,0,0,0,5.71-4.57l12.33-49.1a10.7,10.7,0,0,0,.23-1.94c0-1.83-1.37-2.74-3.65-2.74l.68-2.74h29.8l-.68,2.74a5.79,5.79,0,0,0-5.71,4.57l-10.28,41h33.23c2.85,0,5.48-1.83,7.31-5.14Z" transform="translate(-53.2 -32.86)"/><path class="cls-2" d="M2351.36,1389.28l-.69,2.74a5.8,5.8,0,0,0-5.82,4.45l-12.33,49.44a8.44,8.44,0,0,0-.23,1.6c0,1.83,1.37,2.86,3.77,2.86l-.69,2.74h-29.8l.68-2.74c3.32,0,4.91-1.49,5.6-4.46l12.22-49.21a12,12,0,0,0,.34-1.94c0-1.94-1.37-2.74-3.54-2.74l.69-2.74Z" transform="translate(-53.2 -32.86)"/><path class="cls-2" d="M2417.92,1410.74l-2.62.58c-1.6-5.94-10.39-9-21.35-9-10.62,0-13.25,2.16-13.25,3.88a3.07,3.07,0,0,0,1.83,2.51,21.39,21.39,0,0,0,2.17,1c.8.34,1.71.68,2.74,1.14l11.19,4.34c7.76,3.08,15.18,7.53,15.18,17.7,0,14.38-13.47,21.92-39.5,21.92-6.85,0-16.67-2.17-18.16-2.17a13,13,0,0,0-4.57.68l-2-24.09,3.08-.68c2.17,6.85,10.28,11.07,23.18,11.07,13.59,0,15.19-3,15.19-4.79,0-2.06-2.06-3.31-7.2-5.37l-8.45-3.31c-8.44-3.31-16.78-7-16.78-17.59,0-14,14.61-21.23,35.62-21.23,6.51,0,15.65,1.82,17.13,1.82a11.19,11.19,0,0,0,4.68-.91Z" transform="translate(-53.2 -32.86)"/><path class="cls-2" d="M2512,1389.28l-.69,2.74a5.62,5.62,0,0,0-5.7,4.68l-12.22,49.21a10.88,10.88,0,0,0-.23,1.83c0,1.71,1.14,2.63,3.54,2.63l-.69,2.74h-29.8l.69-2.74q4.8,0,5.82-4.46l4.11-16.9H2449l-4.11,16.9a9.33,9.33,0,0,0-.23,1.6c0,1.83,1.26,2.86,3.66,2.86l-.69,2.74h-29.69l.69-2.74c3.2,0,4.91-1.49,5.59-4.46l12.22-49.21a8.37,8.37,0,0,0,.23-1.71c0-1.83-1.14-3-3.43-3l.69-2.74h29.69l-.69,2.74a6,6,0,0,0-5.82,4.68l-4,16H2481l4-16a12,12,0,0,0,.34-1.94c0-1.83-1.48-2.74-3.77-2.74l.69-2.74Z" transform="translate(-53.2 -32.86)"/><path class="cls-2" d="M2552.32,1389.28l-.69,2.74a5.8,5.8,0,0,0-5.82,4.45l-12.34,49.44a9.24,9.24,0,0,0-.22,1.6c0,1.83,1.37,2.86,3.76,2.86l-.68,2.74h-29.8l.68-2.74c3.31,0,4.91-1.49,5.6-4.46L2525,1396.7a12,12,0,0,0,.34-1.94c0-1.94-1.37-2.74-3.54-2.74l.68-2.74Z" transform="translate(-53.2 -32.86)"/><path class="cls-2" d="M2637,1389.28l-.69,2.74a5.82,5.82,0,0,0-5.82,4.57l-14.16,56.52h-16.44a12,12,0,0,0-1.71-5.48l-19.07-32.32-7.65,30.26a8.46,8.46,0,0,0-.23,1.71c0,2.17,1.6,3.09,3.65,3.09l-.68,2.74h-27.41l.69-2.74a5.54,5.54,0,0,0,5.59-4.57l12.22-49.1a7.67,7.67,0,0,0,.34-2.17c0-1.71-1.25-2.51-3.54-2.51l.69-2.74H2587a12.7,12.7,0,0,0,1.71,5.48l17,28.2,6.28-26.15a12.54,12.54,0,0,0,.34-2.51c0-1.82-1.14-2.28-3.54-2.28l.69-2.74Z" transform="translate(-53.2 -32.86)"/><path class="cls-2" d="M2716.05,1420.91l-.69,2.85a5.61,5.61,0,0,0-5.93,4.57l-3,12c-.34,1.6-.34,3.42.45,4.45-10.16,6.62-20.32,10.28-36.76,10.28-20.21,0-32.43-9.71-32.43-27.41,0-23.86,21.35-40.19,47.84-40.19,8.22,0,14.05,1.94,15.53,1.94a12.49,12.49,0,0,0,4.8-.8l2.17,21.24-2.86.91c-2.51-5.36-5.93-8.22-20.55-8.22-12.22,0-26.15,10.74-26.15,22.73,0,9.93,8,14.27,16.44,14.27a32.24,32.24,0,0,0,12.45-2.63l2.06-8.56c.68-2.74-.46-4.68-3.43-4.68l.68-2.74Z" transform="translate(-53.2 -32.86)"/></g></svg>